<svg width="15" height="17" viewBox="0 0 15 17" fill="none" xmlns="http://www.w3.org/2000/svg">
<path d="M5.71429 1.42857C6.36607 1.42857 6.85714 1.98214 6.85714 2.625V7.71429H7.14286V6.85714C7.14286 6.22321 7.65179 5.71428 8.28572 5.71428C8.9375 5.71428 9.42857 6.26786 9.42857 6.91071V7.71429H9.71429V7.14286C9.71429 6.58929 10.1607 6.14286 10.7143 6.14286C11.2857 6.14286 11.7143 6.60714 11.7143 7.16964V7.71429H12C12 7.24107 12.3839 6.85714 12.8571 6.85714C13.3482 6.85714 13.7143 7.28571 13.7143 7.75893V9.69643C13.7143 10.2768 13.6429 10.8571 13.5 11.4286L12.6786 14.7143C12.6161 14.9643 12.3839 15.1429 12.125 15.1429H5.71429C5.35714 15.1429 5.01786 14.9732 4.80357 14.6875L1.375 10.1161C1.22321 9.91964 1.14286 9.67857 1.14286 9.42857C1.14286 8.8125 1.64286 8.28571 2.26786 8.28571C2.64286 8.28571 3 8.47321 3.22321 8.76786L4.57143 10.5714V7.14286V2.57143C4.57143 1.9375 5.08036 1.42857 5.71429 1.42857ZM5.71429 0.285713C4.45536 0.285713 3.42857 1.3125 3.42857 2.57143V7.45536C3.08036 7.25 2.67857 7.14286 2.26786 7.14286C1.01786 7.14286 0 8.17857 0 9.42857C0 9.91964 0.160714 10.4107 0.455357 10.8036L3.88393 15.375C4.3125 15.9375 5 16.2857 5.71429 16.2857H12.125C12.9107 16.2857 13.5982 15.75 13.7857 14.9911L14.6071 11.7054C14.7768 11.0446 14.8571 10.3661 14.8571 9.69643V7.75893C14.8571 6.65179 13.9821 5.71428 12.8571 5.71428C12.6875 5.71428 12.5268 5.73214 12.3571 5.77678C11.9554 5.28571 11.3571 5 10.7143 5C10.4107 5 10.1071 5.0625 9.83036 5.1875C9.41072 4.79464 8.86607 4.57143 8.28572 4.57143C8.1875 4.57143 8.09822 4.58036 8 4.58928V2.625C8 1.35714 6.99107 0.285713 5.71429 0.285713ZM6.85714 12.8571H6.57143V9.42857H6.85714V12.8571ZM9.14286 12.8571H8.85714V9.42857H9.14286V12.8571ZM11.4286 12.8571H11.1429V9.42857H11.4286V12.8571Z" fill="white"/>
</svg>
