<svg width="13" height="14" viewBox="0 0 13 14" fill="none" xmlns="http://www.w3.org/2000/svg">
<path d="M5 0.999999C5.57031 0.999999 6 1.48437 6 2.04687V6.5H6.25V5.75C6.25 5.19531 6.69531 4.75 7.25 4.75C7.82031 4.75 8.25 5.23437 8.25 5.79687V6.5H8.5V6C8.5 5.51562 8.89063 5.125 9.375 5.125C9.875 5.125 10.25 5.53125 10.25 6.02344V6.5H10.5C10.5 6.08594 10.8359 5.75 11.25 5.75C11.6797 5.75 12 6.125 12 6.53906V8.23437C12 8.74219 11.9375 9.25 11.8125 9.75L11.0938 12.625C11.0391 12.8438 10.8359 13 10.6094 13H5C4.6875 13 4.39063 12.8516 4.20313 12.6016L1.20313 8.60156C1.07031 8.42969 1 8.21875 1 8C1 7.46094 1.4375 7 1.98438 7C2.3125 7 2.625 7.16406 2.82031 7.42187L4 9V6V2C4 1.44531 4.44531 0.999999 5 0.999999ZM5 -9.53674e-07C3.89844 -9.53674e-07 3 0.898437 3 2V6.27344C2.69531 6.09375 2.34375 6 1.98438 6C0.890625 6 0 6.90625 0 8C0 8.42969 0.140625 8.85937 0.398438 9.20312L3.39844 13.2031C3.77344 13.6953 4.375 14 5 14H10.6094C11.2969 14 11.8984 13.5313 12.0625 12.8672L12.7813 9.99219C12.9297 9.41406 13 8.82031 13 8.23437V6.53906C13 5.57031 12.2344 4.75 11.25 4.75C11.1016 4.75 10.9609 4.76562 10.8125 4.80469C10.4609 4.375 9.9375 4.125 9.375 4.125C9.10938 4.125 8.84375 4.17969 8.60156 4.28906C8.23438 3.94531 7.75781 3.75 7.25 3.75C7.16406 3.75 7.08594 3.75781 7 3.76562V2.04687C7 0.9375 6.11719 -9.53674e-07 5 -9.53674e-07ZM6 11H5.75V8H6V11ZM8 11H7.75V8H8V11ZM10 11H9.75V8H10V11Z" fill="#6D2D09"/>
</svg>
