<svg width="65" height="43" viewBox="0 0 65 43" fill="none" xmlns="http://www.w3.org/2000/svg">
<path d="M43.6991 24.1348L38.1662 21.6758C37.7753 21.5021 37.5229 21.1135 37.5229 20.6859V19.1665C39.3815 17.6856 40.5762 15.4052 40.5762 12.8496V10.7108C41.1885 10.3725 41.5938 9.71868 41.5938 8.98641V8.77884C41.5938 4.32583 37.971 0.702972 33.518 0.702972H31.4826C27.0296 0.702972 23.4068 4.32583 23.4068 8.77884V10.6622C23.4068 11.3058 23.6838 11.8889 24.1666 12.2621C24.2485 12.3253 24.3347 12.3809 24.4244 12.429V12.8495C24.4244 15.405 25.6189 17.6855 27.4774 19.1663V20.6858C27.4774 21.1134 27.2249 21.502 26.8341 21.6756L21.3012 24.1347C19.4892 24.94 18.3184 26.7417 18.3184 28.7246V41.3442C18.3184 41.8701 18.7447 42.2964 19.2705 42.2964C19.7963 42.2964 20.2227 41.8701 20.2227 41.3442V28.7247C20.2227 28.6144 20.2305 28.5053 20.242 28.3972L22.7914 30.9466C23.1882 31.3435 23.4068 31.871 23.4068 32.4322V41.3444C23.4068 41.8702 23.8331 42.2965 24.3589 42.2965C24.8848 42.2965 25.3111 41.8702 25.3111 41.3444V32.4322C25.3111 31.3624 24.8945 30.3567 24.138 29.6002L21.0986 26.5607C21.3725 26.2765 21.701 26.041 22.0748 25.8749L27.5143 23.4573L31.5483 27.4912V41.3442C31.5483 41.8701 31.9746 42.2964 32.5004 42.2964C33.0263 42.2964 33.4526 41.8701 33.4526 41.3442V27.4914L37.4865 23.4574L42.9259 25.8749C43.2997 26.041 43.6283 26.2765 43.9021 26.5608L40.8627 29.6002C40.1062 30.3567 39.6897 31.3624 39.6897 32.4322V41.3444C39.6897 41.8702 40.116 42.2965 40.6418 42.2965C41.1676 42.2965 41.594 41.8702 41.594 41.3444V32.4322C41.594 31.8711 41.8124 31.3435 42.2093 30.9466L44.7586 28.3973C44.7701 28.5055 44.7779 28.6143 44.7779 28.7246V41.3442C44.7779 41.8701 45.2043 42.2964 45.7301 42.2964C46.2559 42.2964 46.6822 41.8701 46.6822 41.3442V28.7247C46.6819 26.7418 45.5111 24.9401 43.6991 24.1348ZM32.5 25.7504L28.9605 22.2107C29.2296 21.7579 29.3816 21.234 29.3816 20.6859V20.2984C30.3417 20.7019 31.3953 20.9255 32.5002 20.9255C33.605 20.9255 34.6585 20.702 35.6185 20.2986V20.6859C35.6185 21.2341 35.7705 21.7579 36.0398 22.2109L32.5 25.7504ZM32.5002 19.021C29.0972 19.0212 26.3286 16.2526 26.3286 12.8496V12.4214C26.9227 12.1859 27.5027 11.8111 28.0578 11.2989C28.4441 10.9423 28.4684 10.3399 28.1117 9.95341C27.755 9.56709 27.1528 9.54285 26.7662 9.89946C26.29 10.3391 25.8142 10.6231 25.3523 10.7437C25.3412 10.7466 25.3329 10.7479 25.3271 10.7484C25.3202 10.7351 25.3109 10.7071 25.3109 10.6623V8.77897C25.3109 5.37599 28.0795 2.6074 31.4825 2.6074H33.5178C36.9209 2.6074 39.6894 5.37599 39.6894 8.77897V8.98654C39.6894 9.01739 39.6709 9.04418 39.6465 9.049C33.9449 10.1751 31.0852 8.0528 30.1203 7.08795C29.7485 6.71611 29.1456 6.71611 28.7738 7.08795C28.402 7.4598 28.402 8.0627 28.7738 8.43442C31.7306 11.3912 36.0451 11.4445 38.6717 11.1289V12.8495C38.6717 16.2524 35.9032 19.021 32.5002 19.021Z" fill="#FAFF00"/>
<path d="M17.1694 18.9559V16.9202C17.1694 14.4362 15.8785 12.2496 13.9335 10.9912C14.0536 10.6059 14.1163 10.2023 14.1163 9.79647C14.1163 7.58799 12.3197 5.79135 10.1112 5.79135C7.9027 5.79135 6.10606 7.58812 6.10606 9.79647C6.10606 10.2074 6.16827 10.6071 6.28862 10.9915C4.3437 12.2497 3.05297 14.4364 3.05297 16.9202V18.9555C3.05297 21.3609 4.26321 23.4879 6.10594 24.7627V26.8566C6.10594 27.2695 5.87653 27.6407 5.50723 27.8255L2.21394 29.472C0.848301 30.1551 0 31.5277 0 33.0545V41.3444C0 41.8703 0.426309 42.2966 0.952148 42.2966C1.47799 42.2966 1.9043 41.8703 1.9043 41.3444V33.4664L3.45541 35.0175C3.85214 35.4143 4.07075 35.9418 4.07075 36.5031V41.3444C4.07075 41.8703 4.49706 42.2966 5.0229 42.2966C5.54874 42.2966 5.97505 41.8703 5.97505 41.3444V36.5031C5.97505 35.4333 5.55839 34.4275 4.802 33.671L2.64316 31.5122C2.63275 31.5018 2.62158 31.4928 2.61092 31.483C2.74638 31.3634 2.89834 31.2593 3.06566 31.1755L6.35896 29.5289C6.52768 29.4445 6.68472 29.3448 6.83109 29.2341L9.15903 31.5622V41.3446C9.15903 41.8704 9.58534 42.2967 10.1112 42.2967C10.637 42.2967 11.0633 41.8704 11.0633 41.3446V31.5621L13.3914 29.234C13.5379 29.3448 13.6948 29.4445 13.8635 29.5288L14.7716 29.9829C14.9084 30.0513 15.0536 30.0837 15.1968 30.0837C15.546 30.0837 15.8823 29.8907 16.0492 29.5572C16.2844 29.0869 16.0937 28.5149 15.6234 28.2798L14.7153 27.8257C14.3458 27.641 14.1164 27.2698 14.1164 26.8569V24.7631C15.9592 23.4882 17.1694 21.3611 17.1694 18.9559ZM10.1112 7.69565C11.2696 7.69565 12.212 8.63815 12.212 9.79647C12.212 9.92406 12.2006 10.0491 12.1787 10.1716C11.5244 9.97078 10.8304 9.86198 10.1112 9.86198C9.39301 9.86198 8.69984 9.97039 8.04654 10.1707C8.02458 10.0482 8.01036 9.9238 8.01036 9.79647C8.01036 8.63802 8.95273 7.69565 10.1112 7.69565ZM10.1112 11.7664C12.953 11.7664 15.2651 14.0785 15.2651 16.9203V17.2654C11.301 18.479 8.93852 15.4635 8.83759 15.3314C8.67191 15.1106 8.41864 14.9725 8.14341 14.9529C7.86817 14.9336 7.59776 15.0343 7.40264 15.2294C6.49378 16.1383 5.60358 16.5767 4.96069 16.7883C5.03115 14.0072 7.31364 11.7664 10.1112 11.7664ZM10.1112 29.821L7.91096 27.6208C7.9752 27.3753 8.01036 27.1194 8.01036 26.8567V25.6944C8.6742 25.9019 9.37993 26.0137 10.1112 26.0137C10.8424 26.0137 11.5482 25.9019 12.212 25.6944V26.8567C12.212 27.1194 12.2472 27.3754 12.3114 27.6208L10.1112 29.821ZM10.1112 24.1094C7.26934 24.1094 4.95727 21.7973 4.95727 18.9555V18.7582C5.71657 18.5838 6.84239 18.1784 8.01684 17.2339C8.43235 17.6259 9.02624 18.1068 9.7825 18.5193C10.677 19.0072 11.9124 19.4585 13.4214 19.4585C13.9948 19.4585 14.6084 19.3918 15.257 19.2387C15.1093 21.9494 12.8579 24.1094 10.1112 24.1094Z" fill="#FAFF00"/>
<path d="M62.7862 27.4369L57.4576 24.7725C57.0883 24.5878 56.8589 24.2166 56.8589 23.8037V22.4544C58.1062 21.3469 58.8942 19.7331 58.8942 17.938V16.8542C58.9161 16.8542 58.9377 16.8548 58.9597 16.8548C59.4855 16.8548 59.9118 16.4285 59.9118 15.9027V13.8674C59.9118 10.5366 57.202 7.82681 53.8713 7.82681H51.836C48.5052 7.82681 45.7954 10.5366 45.7954 13.8674V15.9027C45.7954 16.4285 46.2217 16.8548 46.7476 16.8548C46.7554 16.8548 46.7783 16.8546 46.8131 16.8532V17.938C46.8131 19.7332 47.6012 21.3471 48.8485 22.4545V23.8039C48.8485 24.2168 48.6191 24.5881 48.2497 24.7726C47.7793 25.0078 47.5886 25.5797 47.8239 26.05C47.9907 26.3837 48.327 26.5766 48.6762 26.5766C48.8193 26.5766 48.9645 26.5443 49.1013 26.476C49.27 26.3916 49.427 26.2919 49.5734 26.1812L51.9015 28.5093V41.3446C51.9015 41.8704 52.3278 42.2967 52.8536 42.2967C53.3795 42.2967 53.8058 41.8704 53.8058 41.3446V28.509L56.1337 26.1809C56.2802 26.2918 56.4371 26.3914 56.6058 26.4757L61.762 29.0539L60.1981 30.6178C59.4417 31.3743 59.0251 32.3801 59.0251 33.4499V41.3443C59.0251 41.8702 59.4514 42.2965 59.9772 42.2965C60.5031 42.2965 60.9294 41.8702 60.9294 41.3443V33.4499C60.9294 32.8888 61.1479 32.3611 61.5447 31.9643L63.0261 30.4829C63.0711 30.6551 63.0957 30.8348 63.0957 31.0191V41.3443C63.0957 41.8702 63.522 42.2965 64.0478 42.2965C64.5737 42.2965 65 41.8702 65 41.3443V31.0191C65.0001 29.4924 64.1518 28.1198 62.7862 27.4369ZM47.6996 14.7546V13.8672H47.6997C47.6997 11.5865 49.5553 9.73098 51.836 9.73098H53.8713C56.152 9.73098 58.0075 11.5865 58.0075 13.8672V14.9249C53.8685 14.7016 51.3707 13.0909 51.3464 13.0751C51.1853 12.9677 51.0015 12.9151 50.8186 12.9151C50.5728 12.9151 50.329 13.0101 50.1449 13.194C49.2339 14.105 48.3413 14.5435 47.6996 14.7546ZM52.8536 26.7681L50.6534 24.5679C50.7176 24.3223 50.7528 24.0664 50.7528 23.8037V23.601C51.4074 23.8446 52.1151 23.9784 52.8536 23.9784C53.5921 23.9784 54.2999 23.8446 54.9544 23.601V23.8037C54.9544 24.0664 54.9895 24.3223 55.0538 24.5679L52.8536 26.7681ZM52.8536 22.0743C50.5729 22.0743 48.7174 20.2188 48.7174 17.938V16.403C49.3842 16.1365 50.1612 15.7129 50.9519 15.0393C51.9517 15.5595 54.0437 16.4587 56.9899 16.7558V17.938C56.9899 20.2187 55.1343 22.0743 52.8536 22.0743Z" fill="#FAFF00"/>
</svg>
