<svg width="18" height="15" viewBox="0 0 18 15" fill="none" xmlns="http://www.w3.org/2000/svg">
<path d="M5.71429 4.42857C5.71429 3.48214 4.94643 2.71428 4 2.71428C3.05357 2.71428 2.28571 3.48214 2.28571 4.42857C2.28571 5.375 3.05357 6.14286 4 6.14286C4.94643 6.14286 5.71429 5.375 5.71429 4.42857ZM14.8571 7.85714L11.1429 4.14286L6.57143 8.71429L5.14286 7.28571L2.28571 10.1429V11.8571H14.8571V7.85714ZM15.7143 1.57143C15.8661 1.57143 16 1.70536 16 1.85714V12.7143C16 12.8661 15.8661 13 15.7143 13H1.42857C1.27679 13 1.14286 12.8661 1.14286 12.7143V1.85714C1.14286 1.70536 1.27679 1.57143 1.42857 1.57143H15.7143ZM17.1429 1.85714C17.1429 1.07143 16.5 0.428571 15.7143 0.428571H1.42857C0.642857 0.428571 0 1.07143 0 1.85714V12.7143C0 13.5 0.642857 14.1429 1.42857 14.1429H15.7143C16.5 14.1429 17.1429 13.5 17.1429 12.7143V1.85714Z" fill="#6D2D09"/>
</svg>
