<svg width="65" height="65" viewBox="0 0 65 65" fill="none" xmlns="http://www.w3.org/2000/svg">
<path d="M57.598 28.5122C57.0586 28.5122 56.5716 28.1584 56.3968 27.6504C56.2317 27.1707 56.3805 26.6227 56.7609 26.2885C57.1755 25.9243 57.7988 25.8725 58.2678 26.1641C58.7058 26.4364 58.9385 26.963 58.8458 27.4698C58.7371 28.0649 58.2041 28.5122 57.598 28.5122Z" fill="#FAFF00"/>
<path d="M38.2128 30.3487C33.2742 30.3487 29.2563 26.3305 29.2563 21.3913C29.2563 16.4522 33.2742 12.4338 38.2128 12.4338C43.1514 12.4338 47.1692 16.4522 47.1692 21.3913C47.1693 26.3305 43.1514 30.3487 38.2128 30.3487ZM38.2128 14.9729C34.6742 14.9729 31.7954 17.8522 31.7954 21.3913C31.7954 24.9303 34.6742 27.8096 38.2128 27.8096C41.7513 27.8096 44.6301 24.9303 44.6301 21.3913C44.6302 17.8522 41.7513 14.9729 38.2128 14.9729Z" fill="#FAFF00"/>
<path d="M56.9391 31.9767C56.277 31.7454 55.5531 32.095 55.3222 32.7569C54.4202 35.3417 52.9728 37.6428 51.0207 39.5961C50.345 40.2718 49.6216 40.8906 48.8571 41.4476V35.7496C48.8571 33.6363 47.1379 31.917 45.0249 31.917H31.4012C29.2881 31.917 27.569 33.6363 27.569 35.7496V41.4696C26.799 40.91 26.0711 40.2883 25.3922 39.6093C18.33 32.5462 18.3359 21.0478 25.4056 13.9774C28.8303 10.5522 33.3823 8.66452 38.2231 8.66223H38.2319C43.0688 8.66223 47.615 10.5449 51.0337 13.964C52.998 15.9285 54.4493 18.2468 55.3475 20.8544C55.5759 21.5174 56.2984 21.8697 56.9612 21.6414C57.6241 21.413 57.9764 20.6905 57.7482 20.0277C56.7234 17.0524 55.0684 14.4083 52.8292 12.1688C48.9308 8.26982 43.7476 6.12317 38.2319 6.12317H38.2219C32.7032 6.12583 27.5139 8.27756 23.61 12.182C15.5506 20.2424 15.5446 33.3516 23.5966 41.4046C24.9756 42.7838 26.5329 43.9565 28.2251 44.8902C28.2255 44.8905 28.2258 44.8906 28.2262 44.8907C31.2618 46.5651 34.7078 47.4498 38.1939 47.4498H38.2141C41.7067 47.4464 45.16 46.5548 48.2006 44.8714C48.201 44.8712 48.2014 44.871 48.2018 44.8708C49.8866 43.9391 51.439 42.7684 52.8162 41.391C55.0406 39.1651 56.6904 36.5416 57.7192 33.5933C57.9504 32.9316 57.601 32.2077 56.9391 31.9767ZM30.108 43.0114V35.7497C30.108 35.0365 30.6881 34.4562 31.4012 34.4562H45.0248C45.7379 34.4562 46.3179 35.0365 46.3179 35.7497V42.9942C41.2548 45.5271 35.172 45.5336 30.108 43.0114Z" fill="#FAFF00"/>
<path d="M38.2113 0C23.444 0 11.4301 12.0156 11.4301 26.7847C11.4301 32.5971 13.2912 37.9829 16.4483 42.3777L14.0132 44.8131L13.4073 44.2071C13.1692 43.9691 12.8463 43.8353 12.5095 43.8353C12.1729 43.8353 11.8499 43.9691 11.6117 44.2071L7.92005 47.8994C7.91967 47.8998 7.91929 47.9003 7.91891 47.9007L1.90717 53.9132C-0.624656 56.4454 -0.624656 60.5655 1.90717 63.0977C3.13366 64.3245 4.7645 65 6.49906 65C8.23363 65 9.86447 64.3244 11.0908 63.0977L17.1038 57.084H17.104L20.7956 53.3918C21.2913 52.896 21.2913 52.0923 20.7956 51.5965L20.1896 50.9905L22.6254 48.5544C27.0189 51.7097 32.4019 53.5695 38.2114 53.5695C52.9788 53.5695 64.9928 41.5539 64.9928 26.7848C64.9928 12.0157 52.9786 0 38.2113 0V0ZM9.29533 61.3025C8.54847 62.0495 7.55532 62.4609 6.49906 62.4609C5.44269 62.4609 4.44953 62.0495 3.70267 61.3025C2.16057 59.7601 2.16057 57.2508 3.70267 55.7084L8.81786 50.5925L11.6115 53.3863L14.4109 56.1862L9.29533 61.3025ZM16.2062 54.3908L13.4126 51.5969L10.6131 48.7971L12.5095 46.9004L18.1026 52.4941L16.2062 54.3908ZM18.3942 49.1948L17.1018 47.9023L15.8083 46.6087L18.0361 44.3807C18.8387 45.2999 19.7028 46.1641 20.6222 46.9666L18.3942 49.1948ZM38.2113 51.0303C24.844 51.0303 13.969 40.1538 13.969 26.7847C13.9691 13.4156 24.8442 2.53906 38.2113 2.53906C51.5785 2.53906 62.4537 13.4156 62.4537 26.7847C62.4537 40.1538 51.5786 51.0303 38.2113 51.0303Z" fill="#FAFF00"/>
</svg>
