<svg width="70" height="70" viewBox="0 0 70 70" fill="none" xmlns="http://www.w3.org/2000/svg">
<path d="M46.7515 44.8928C45.0929 44.8928 43.7437 43.725 43.7437 42.2895C43.7437 40.854 45.0929 39.6861 46.7515 39.6861C48.41 39.6861 49.7593 40.854 49.7593 42.2895C49.7593 43.0445 50.3715 43.6567 51.1265 43.6567C51.8814 43.6567 52.4937 43.0445 52.4937 42.2895C52.4937 39.7842 50.6269 37.6776 48.1187 37.1059V36.3948C48.1187 35.6398 47.5064 35.0276 46.7515 35.0276C45.9965 35.0276 45.3843 35.6398 45.3843 36.3948V37.1059C42.876 37.6776 41.0093 39.7842 41.0093 42.2895C41.0093 45.2327 43.5852 47.6272 46.7515 47.6272C48.41 47.6272 49.7593 48.795 49.7593 50.2306C49.7593 51.6661 48.41 52.834 46.7515 52.834C45.0929 52.834 43.7437 51.6661 43.7437 50.2306C43.7437 49.4756 43.1314 48.8634 42.3765 48.8634C41.6215 48.8634 41.0093 49.4756 41.0093 50.2306C41.0093 52.736 42.876 54.8425 45.3843 55.4143V56.0049C45.3843 56.7599 45.9965 57.3721 46.7515 57.3721C47.5064 57.3721 48.1187 56.7599 48.1187 56.0049V55.4143C50.6269 54.8425 52.4937 52.736 52.4937 50.2306C52.4937 47.2873 49.9177 44.8928 46.7515 44.8928Z" fill="#FAFF00"/>
<path d="M61.7262 36.7604C59.9402 33.9775 57.424 31.7506 54.4497 30.3208C53.769 29.9935 52.9521 30.2801 52.6251 30.9607C52.2979 31.6412 52.5843 32.458 53.2649 32.7852C58.4481 35.2767 61.797 40.6004 61.797 46.3478C61.797 48.8071 61.1908 51.246 60.0441 53.4012C59.6895 54.0677 59.9423 54.8957 60.6089 55.2504C60.8134 55.3592 61.0333 55.4109 61.2498 55.4109C61.739 55.4109 62.2122 55.1476 62.458 54.6856C63.8144 52.1366 64.5314 49.2533 64.5314 46.3478C64.5314 42.9353 63.5613 39.62 61.7262 36.7604Z" fill="#FAFF00"/>
<path d="M48.9006 28.5745L48.8086 28.5743C48.0536 28.5743 47.4414 29.1864 47.4414 29.9415C47.4414 30.6966 48.0536 31.3087 48.8086 31.3087L48.8878 31.3089C48.8899 31.3089 48.892 31.3089 48.8943 31.3089C49.6464 31.3089 50.2578 30.701 50.2614 29.9481C50.2648 29.193 49.6556 28.578 48.9006 28.5745Z" fill="#FAFF00"/>
<path d="M40.2512 59.9105C35.0682 57.4188 31.7192 52.0951 31.7192 46.3478C31.7192 43.8886 32.3254 41.4496 33.4721 39.2944C33.8268 38.6279 33.574 37.7999 32.9073 37.4453C32.241 37.0906 31.4127 37.3434 31.0582 38.0101C29.7018 40.5592 28.9849 43.4423 28.9849 46.3478C28.9849 49.7603 29.9549 53.0755 31.7901 55.9352C33.576 58.7182 36.0922 60.945 39.0665 62.375C39.2575 62.4669 39.4593 62.5102 39.6579 62.5102C40.1671 62.5102 40.6557 62.2246 40.8911 61.7351C41.218 61.0545 40.9318 60.2377 40.2512 59.9105Z" fill="#FAFF00"/>
<path d="M44.7074 61.3868L44.6282 61.3865C43.8697 61.3851 43.2583 61.992 43.2549 62.7472C43.2513 63.5023 43.8608 64.1173 44.6158 64.1209L44.7074 64.1211C45.4624 64.1211 46.0746 63.5089 46.0746 62.7539C46.0746 61.999 45.4624 61.3868 44.7074 61.3868Z" fill="#FAFF00"/>
<path d="M52.966 23.9487C52.7996 23.5522 52.5957 23.1786 52.3585 22.832H55.9179C59.3856 22.832 62.2069 20.0107 62.2069 16.5429C62.2069 13.0752 59.3856 10.2539 55.9179 10.2539H44.9694C45.6655 9.2419 46.0741 8.01758 46.0741 6.69921C46.0741 3.23148 43.2528 0.410156 39.7851 0.410156H6.28905C2.82132 0.410156 0 3.23148 0 6.69921C0 10.1669 2.82132 12.9883 6.28905 12.9883H17.2375C16.5414 14.0002 16.1328 15.2246 16.1328 16.5429C16.1328 17.8613 16.5413 19.0856 17.2375 20.0976H13.6718C10.2041 20.0976 7.3828 22.9189 7.3828 26.3867C7.3828 28.3782 8.3144 30.1554 9.76375 31.3085C8.3144 32.4616 7.3828 34.2388 7.3828 36.2304C7.3828 38.222 8.3144 39.9992 9.76375 41.1523C8.3144 42.3053 7.3828 44.0826 7.3828 46.0741C7.3828 48.0657 8.3144 49.8429 9.76375 50.996C8.3144 52.1491 7.3828 53.9263 7.3828 55.9179C7.3828 59.3856 10.2041 62.2069 13.6718 62.2069H29.7841C34.0287 66.7469 40.067 69.5898 46.7579 69.5898C59.5736 69.5898 70 59.1634 70 46.3477C70 35.6813 62.7772 26.6715 52.966 23.9487ZM55.9179 12.9883C57.878 12.9883 59.4725 14.5829 59.4725 16.5429C59.4725 18.5029 57.878 20.0976 55.9179 20.0976H47.1679H22.4218C20.4617 20.0976 18.8672 18.5029 18.8672 16.5429C18.8672 14.5829 20.4617 12.9883 22.4218 12.9883H55.9179ZM6.28905 10.2539C4.32892 10.2539 2.73437 8.6592 2.73437 6.69921C2.73437 4.73921 4.32892 3.14453 6.28905 3.14453H39.7851C41.7452 3.14453 43.3398 4.73921 43.3398 6.69921C43.3398 8.6592 41.7452 10.2539 39.7851 10.2539H6.28905ZM13.6718 22.832H47.1679C47.7186 22.832 48.2459 22.96 48.7189 23.1891C48.0723 23.1348 47.4185 23.1056 46.7579 23.1056C40.3396 23.1056 34.5209 25.7208 30.3108 29.9413H13.6718C11.7119 29.9413 10.1172 28.3467 10.1172 26.3867C10.1172 24.4267 11.7119 22.832 13.6718 22.832ZM13.6718 32.6757H27.9747C26.4226 34.8021 25.2226 37.2004 24.4606 39.7851H13.6718C11.7117 39.7851 10.1172 38.1905 10.1172 36.2304C10.1172 34.2704 11.7117 32.6757 13.6718 32.6757ZM13.6718 42.5194H23.8328C23.6254 43.7654 23.5157 45.0438 23.5157 46.3477C23.5157 47.4614 23.5962 48.5565 23.7484 49.6288H13.6718C11.7117 49.6288 10.1172 48.0343 10.1172 46.0741C10.1172 44.114 11.7117 42.5194 13.6718 42.5194ZM13.6718 59.4725C11.7117 59.4725 10.1172 57.878 10.1172 55.9179C10.1172 53.9577 11.7117 52.3632 13.6718 52.3632H24.3066C24.9965 54.9353 26.1172 57.3323 27.5869 59.4725H13.6718ZM46.7579 66.8555C35.4499 66.8555 26.2501 57.6557 26.2501 46.3477C26.2501 35.0397 35.4499 25.8399 46.7579 25.8399C58.0658 25.8399 67.2656 35.0397 67.2656 46.3477C67.2656 57.6557 58.0658 66.8555 46.7579 66.8555Z" fill="#FAFF00"/>
</svg>
