<svg width="64" height="70" viewBox="0 0 64 70" fill="none" xmlns="http://www.w3.org/2000/svg">
<path d="M5.36141 62.8833V65.3333C5.36141 67.9107 7.45075 70 10.0281 70H21.4999C24.0772 70 26.1666 67.9107 26.1666 65.3333V63H37.8332V65.3333C37.8332 67.9107 39.9226 70 42.4999 70H53.9717C56.5491 70 58.6384 67.9107 58.6384 65.3333V62.902C61.4391 62.4288 63.4919 60.0071 63.4999 57.1667V5.83333C63.4961 2.61327 60.8866 0.00385714 57.6666 0H6.53158C3.31151 0.00385714 0.702099 2.61327 0.698242 5.83333V10.5C0.698242 11.1443 1.22058 11.6667 1.86491 11.6667C2.50924 11.6667 3.03158 11.1443 3.03158 10.5V5.83333C3.03158 3.90034 4.59858 2.33333 6.53158 2.33333H57.6666C59.5996 2.33333 61.1666 3.90034 61.1666 5.83333V57.1667C61.1666 59.0997 59.5996 60.6667 57.6666 60.6667H6.53158C4.59858 60.6667 3.03158 59.0997 3.03158 57.1667V16.3333C3.03158 15.689 2.50924 15.1667 1.86491 15.1667C1.22058 15.1667 0.698242 15.689 0.698242 16.3333V57.1667C0.701397 59.9365 2.64865 62.3237 5.36141 62.8833ZM56.3051 63V65.3333C56.3051 66.622 55.2604 67.6667 53.9717 67.6667H42.4999C41.2113 67.6667 40.1666 66.622 40.1666 65.3333V63H56.3051ZM23.8332 63V65.3333C23.8332 66.622 22.7886 67.6667 21.4999 67.6667H10.0281C8.73941 67.6667 7.69474 66.622 7.69474 65.3333V63H23.8332Z" fill="#FAFF00"/>
<path d="M9.83317 39.6666C9.18884 39.6666 8.6665 40.189 8.6665 40.8333V51.3333C8.6665 53.2663 10.2335 54.8333 12.1665 54.8333H51.8332C53.7662 54.8333 55.3332 53.2663 55.3332 51.3333V50.1666C57.2662 50.1666 58.8332 48.5996 58.8332 46.6666V39.6666C58.8332 37.7336 57.2662 36.1666 55.3332 36.1666V26.8333C57.2662 26.8333 58.8332 25.2663 58.8332 23.3333V16.3333C58.8332 14.4003 57.2662 12.8333 55.3332 12.8333V11.6666C55.3332 9.73363 53.7662 8.16663 51.8332 8.16663H12.1665C10.2335 8.16663 8.6665 9.73363 8.6665 11.6666V35C8.6665 35.6443 9.18884 36.1666 9.83317 36.1666C10.4775 36.1666 10.9998 35.6443 10.9998 35V11.6666C10.9998 11.0223 11.5222 10.5 12.1665 10.5H51.8332C52.4775 10.5 52.9998 11.0223 52.9998 11.6666V12.8333C51.0668 12.8333 49.4998 14.4003 49.4998 16.3333V23.3333C49.4998 25.2663 51.0668 26.8333 52.9998 26.8333V36.1666C51.0668 36.1666 49.4998 37.7336 49.4998 39.6666V46.6666C49.4998 48.5996 51.0668 50.1666 52.9998 50.1666V51.3333C52.9998 51.9776 52.4775 52.5 51.8332 52.5H12.1665C11.5222 52.5 10.9998 51.9776 10.9998 51.3333V40.8333C10.9998 40.189 10.4775 39.6666 9.83317 39.6666ZM51.8332 23.3333V16.3333C51.8332 15.689 52.3555 15.1666 52.9998 15.1666H55.3332C55.9775 15.1666 56.4998 15.689 56.4998 16.3333V23.3333C56.4998 23.9776 55.9775 24.5 55.3332 24.5H52.9998C52.3555 24.5 51.8332 23.9776 51.8332 23.3333ZM51.8332 46.6666V39.6666C51.8332 39.0223 52.3555 38.5 52.9998 38.5H55.3332C55.9775 38.5 56.4998 39.0223 56.4998 39.6666V46.6666C56.4998 47.311 55.9775 47.8333 55.3332 47.8333H52.9998C52.3555 47.8333 51.8332 47.311 51.8332 46.6666Z" fill="#FAFF00"/>
<path d="M19.0663 36.8572C21.6222 43.028 28.1811 46.5339 34.7319 45.2309C41.2826 43.928 46.0007 38.179 46.0007 31.4999C46.0007 24.8208 41.2826 19.0719 34.7319 17.7689C28.1811 16.4659 21.6222 19.9719 19.0663 26.1426C17.6341 29.5706 17.6341 33.4293 19.0663 36.8572ZM26.4793 21.2239L26.904 22.2483C27.0575 22.6421 27.4122 22.9222 27.8309 22.9801C28.2497 23.0381 28.6671 22.865 28.9219 22.5277C29.1767 22.1903 29.2291 21.7415 29.0588 21.3546L28.6353 20.3303C30.8288 19.663 33.1712 19.663 35.3646 20.3303L34.9411 21.3546C34.7709 21.7415 34.8232 22.1903 35.0781 22.5277C35.3329 22.865 35.7502 23.0381 36.169 22.9801C36.5878 22.9222 36.9424 22.6421 37.096 22.2483L37.5206 21.2228C39.5432 22.3024 41.1992 23.9588 42.2783 25.9816L41.254 26.4063C40.8601 26.5598 40.5801 26.9144 40.5221 27.3332C40.4641 27.752 40.6372 28.1694 40.9745 28.4242C41.3119 28.679 41.7607 28.7314 42.1476 28.5611L43.172 28.1376C43.8393 30.3311 43.8393 32.6734 43.172 34.8669L42.1476 34.4434C41.7607 34.2731 41.3119 34.3255 40.9745 34.5803C40.6372 34.8351 40.4641 35.2525 40.5221 35.6713C40.5801 36.0901 40.8601 36.4447 41.254 36.5983L42.2795 37.0229C41.1998 39.0454 39.5434 40.7014 37.5206 41.7806L37.096 40.7562C36.9424 40.3624 36.5878 40.0824 36.169 40.0244C35.7502 39.9664 35.3329 40.1395 35.0781 40.4768C34.8232 40.8142 34.7709 41.263 34.9411 41.6499L35.3646 42.6742C33.1712 43.3415 30.8288 43.3415 28.6353 42.6742L29.0588 41.6499C29.2291 41.263 29.1767 40.8142 28.9219 40.4768C28.6671 40.1395 28.2497 39.9664 27.8309 40.0244C27.4122 40.0824 27.0575 40.3624 26.904 40.7562L26.4793 41.7817C24.4568 40.7021 22.8008 39.0457 21.7216 37.0229L22.746 36.5983C23.1399 36.4447 23.4199 36.0901 23.4779 35.6713C23.5359 35.2525 23.3628 34.8351 23.0254 34.5803C22.6881 34.3255 22.2393 34.2731 21.8523 34.4434L20.828 34.8669C20.1607 32.6734 20.1607 30.3311 20.828 28.1376L21.8523 28.5611C22.2393 28.7314 22.6881 28.679 23.0254 28.4242C23.3628 28.1694 23.5359 27.752 23.4779 27.3332C23.4199 26.9144 23.1399 26.5598 22.746 26.4063L21.7205 25.9816C22.7997 23.9582 24.4562 22.3014 26.4793 21.2216V21.2239Z" fill="#FAFF00"/>
<path d="M32.0093 38.5C35.0921 38.4952 37.8088 36.4742 38.6997 33.523C39.5907 30.5718 38.446 27.3851 35.8809 25.6753C33.3157 23.9656 29.934 24.1352 27.5527 26.093C25.1715 28.0509 24.3515 31.3361 25.5332 34.1833C26.6216 36.7984 29.1768 38.5016 32.0093 38.5ZM30.2138 27.1833C32.5952 26.2009 35.3222 27.3339 36.3063 29.7146C37.2903 32.0952 36.1593 34.823 33.7793 35.8088C31.3994 36.7946 28.6708 35.6654 27.6833 33.2862C27.205 32.1418 27.2032 30.8538 27.6783 29.708C28.1533 28.5623 29.066 27.6535 30.2138 27.1833Z" fill="#FAFF00"/>
<path d="M20.333 12.8334H14.4997C13.8553 12.8334 13.333 13.3557 13.333 14V19.8334C13.333 20.4777 13.8553 21 14.4997 21C15.144 21 15.6663 20.4777 15.6663 19.8334V15.1667H20.333C20.9773 15.1667 21.4997 14.6444 21.4997 14C21.4997 13.3557 20.9773 12.8334 20.333 12.8334Z" fill="#FAFF00"/>
</svg>
